<?xml version="1.0" standalone="no"?>
<!DOCTYPE svg PUBLIC "-//W3C//DTD SVG 20010904//EN"
 "http://www.w3.org/TR/2001/REC-SVG-20010904/DTD/svg10.dtd">
<svg version="1.0" xmlns="http://www.w3.org/2000/svg"
 width="1100.000000pt" height="1100.000000pt" viewBox="0 0 1100.000000 1100.000000"
 preserveAspectRatio="xMidYMid meet">
<metadata>
Created by potrace 1.14, written by Peter Selinger 2001-2017
</metadata>
<g transform="translate(0.000000,1100.000000) scale(0.100000,-0.100000)"
fill="#000000" stroke="none">
<path d="M924 9782 c-25 -4 -56 -84 -118 -297 -141 -485 -185 -863 -172 -1445
3 -146 13 -317 21 -380 8 -63 21 -179 30 -258 30 -266 133 -815 211 -1123 110
-437 309 -949 573 -1479 198 -397 373 -683 654 -1064 301 -410 694 -836 1031
-1119 66 -56 155 -131 196 -167 105 -92 187 -156 400 -311 271 -198 464 -324
890 -579 244 -146 811 -448 919 -489 44 -16 52 -17 70 -4 12 8 83 35 158 62
254 88 605 251 858 398 131 77 460 290 595 386 166 119 538 417 700 563 190
170 645 622 775 769 345 392 735 941 967 1363 254 461 454 916 567 1287 35
115 129 468 160 600 12 50 26 108 31 130 38 154 80 429 115 745 23 207 25 259
24 685 -1 657 -7 735 -109 1355 -28 168 -53 320 -56 338 -3 21 -10 32 -22 32
-296 2 -9454 4 -9468 2z m4666 -359 c465 -4 827 -9 805 -10 -83 -6 -174 -25
-186 -39 -6 -8 -18 -14 -25 -14 -8 0 -11 -6 -8 -15 4 -10 0 -15 -13 -15 -11 0
-20 -6 -20 -12 0 -7 -3 -23 -7 -35 -6 -19 -4 -23 12 -23 11 0 25 -6 31 -14 9
-11 6 -18 -16 -36 -25 -20 -26 -22 -10 -31 10 -6 15 -14 12 -20 -4 -5 -1 -9 5
-9 8 0 9 -7 5 -17 -4 -10 -9 -36 -12 -57 -2 -22 -11 -48 -20 -58 -11 -12 -12
-18 -4 -18 7 0 22 10 32 23 l20 22 -7 -25 c-4 -14 -11 -26 -15 -28 -12 -5 -11
-32 1 -32 6 0 10 -5 10 -10 0 -6 -11 -8 -26 -4 -24 6 -25 5 -20 -36 3 -23 10
-48 17 -56 9 -11 7 -14 -10 -14 -25 0 -25 -1 -7 -45 8 -18 12 -36 8 -39 -3 -3
1 -6 9 -6 10 -1 9 -3 -3 -11 -14 -7 -17 -20 -14 -57 2 -26 0 -54 -5 -63 -4 -9
-5 -19 -1 -23 10 -10 11 -80 1 -86 -5 -3 -9 -20 -11 -38 -1 -18 -5 -32 -8 -32
-3 0 -6 -16 -6 -35 0 -41 -1 -43 -39 -47 -25 -2 -31 1 -33 20 -2 12 1 22 7 22
6 0 11 9 11 21 0 14 -4 18 -12 12 -23 -13 -37 -11 -37 5 0 10 -3 31 -6 47 -4
17 -6 38 -6 48 0 9 -4 15 -8 12 -5 -2 -11 13 -15 35 -13 81 -134 453 -201 615
-59 143 -87 191 -118 203 -17 6 -32 10 -35 8 -2 -2 21 -66 52 -143 135 -338
277 -767 356 -1078 81 -318 115 -511 194 -1100 16 -118 35 -343 36 -419 0 -70
8 -34 25 124 20 176 61 315 124 420 5 8 42 81 82 163 39 81 76 147 81 147 6 0
7 7 4 16 -3 8 2 27 11 41 10 14 18 33 20 42 1 9 7 17 12 19 6 2 11 13 11 23 0
11 5 17 10 14 6 -3 10 5 10 19 0 38 18 78 32 70 6 -4 8 -3 4 4 -3 6 7 35 24
65 16 30 30 65 30 76 0 12 6 21 15 21 8 0 12 6 9 14 -3 8 -1 17 5 21 6 3 11
17 11 31 0 13 5 24 10 24 6 0 10 7 10 15 0 8 4 15 10 15 5 0 7 7 4 15 -4 8 -1
15 5 15 6 0 11 5 11 12 0 19 52 118 62 118 6 0 8 6 5 13 -3 7 1 21 9 31 7 11
11 23 8 27 -3 5 0 9 6 9 7 0 10 7 6 15 -3 8 1 18 9 22 8 5 25 37 39 73 13 36
31 79 40 95 9 17 16 38 16 48 0 11 5 15 11 11 8 -4 9 0 4 15 -4 12 -2 21 4 21
6 0 11 9 11 19 0 11 5 23 10 26 6 3 10 15 10 26 0 10 5 19 11 19 6 0 8 9 4 20
-3 11 -2 20 2 20 5 0 15 24 23 53 7 28 16 54 19 57 12 10 31 50 31 65 0 8 7
15 16 15 8 0 12 5 9 10 -3 6 -2 10 3 10 8 0 19 32 26 75 5 28 39 94 47 89 5
-3 9 6 9 20 0 15 5 25 12 23 8 -1 12 8 10 25 -2 19 3 30 18 38 11 6 20 16 19
23 -3 15 12 50 24 58 5 4 9 23 9 43 0 20 4 36 9 36 5 0 9 7 9 16 0 9 -5 12
-12 8 -8 -5 -9 -2 -5 9 5 13 -1 18 -21 23 -15 3 -31 7 -37 9 -5 2 514 5 1155
7 1642 4 1550 5 1559 -10 10 -17 64 -311 96 -524 105 -703 93 -1548 -31 -2205
-23 -123 -93 -416 -113 -473 -5 -14 -21 -68 -36 -120 -38 -133 -46 -155 -39
-102 4 27 2 42 -5 42 -6 0 -11 4 -11 10 0 5 7 7 15 4 12 -5 15 3 15 43 0 55
-7 68 -27 52 -10 -9 -13 -6 -13 15 0 14 -4 26 -10 26 -5 0 -10 -7 -10 -15 0
-8 -4 -15 -9 -15 -17 0 -23 20 -11 35 9 11 7 12 -9 8 -12 -3 -21 -14 -21 -24
0 -13 -7 -19 -24 -19 -14 0 -28 5 -31 10 -10 16 -28 11 -21 -6 5 -12 2 -15
-11 -9 -25 9 -25 9 -55 1 -16 -5 -25 -12 -22 -17 6 -10 -21 -13 -88 -10 -30 2
-48 -1 -48 -8 0 -6 -7 -11 -15 -11 -8 0 -15 4 -15 9 0 9 -87 8 -97 -2 -3 -4
-1 -7 6 -7 7 0 9 -4 6 -10 -9 -15 -25 -12 -25 5 0 19 -9 19 -32 -2 -17 -15
-18 -15 -18 0 0 24 -17 21 -25 -3 -7 -22 -21 -26 -27 -9 -3 9 -9 9 -23 1 -29
-15 -117 -37 -138 -33 -10 1 -25 -3 -32 -9 -8 -7 -21 -10 -30 -6 -8 3 -14 0
-12 -7 1 -6 -9 -13 -23 -15 -14 -2 -29 -8 -34 -13 -16 -15 -36 -10 -30 6 4 8
1 15 -5 15 -7 0 -14 -6 -17 -14 -6 -16 -42 -18 -61 -4 -7 6 -19 2 -33 -12 -14
-14 -28 -19 -41 -15 -13 4 -19 2 -19 -9 0 -9 -2 -16 -4 -16 -2 0 -13 -3 -23
-6 -14 -5 -15 -4 -4 4 11 8 8 10 -12 9 -14 -1 -23 -5 -20 -9 2 -5 -3 -8 -11
-8 -8 0 -17 8 -19 18 -4 13 -5 12 -6 -5 -1 -22 -21 -44 -21 -24 0 6 -11 11
-25 11 -14 0 -25 -4 -25 -9 0 -10 -79 -20 -182 -23 -47 -1 -76 -6 -75 -13 1
-6 -19 -10 -48 -10 -27 -1 -61 -5 -75 -10 -14 -5 -39 -7 -56 -6 -18 1 -35 -2
-39 -8 -3 -6 -25 -11 -49 -11 -23 0 -46 -3 -49 -6 -4 -4 -31 -8 -62 -9 -30 -1
-58 -5 -62 -8 -3 -4 -12 -2 -18 3 -9 7 -16 6 -24 -4 -9 -11 -19 -12 -36 -6
-13 5 -26 6 -30 2 -4 -4 -10 -7 -13 -8 -37 -4 -82 -18 -82 -25 0 -5 -6 -9 -14
-9 -8 0 -14 -6 -13 -12 1 -40 -5 -58 -19 -58 -18 0 -44 23 -44 40 0 6 -4 9 -9
6 -5 -3 -20 12 -35 34 -14 22 -31 40 -37 40 -5 0 -8 4 -4 9 3 6 -4 15 -16 22
-20 10 -21 9 -15 -7 4 -11 9 -32 11 -49 4 -27 3 -28 -9 -12 -7 9 -16 17 -20
17 -4 0 11 -26 33 -59 38 -55 120 -219 135 -268 7 -22 26 -32 26 -15 0 12 58
14 65 2 3 -5 16 -10 29 -10 14 0 23 -6 23 -15 0 -8 -5 -15 -11 -14 -42 5 -58
-2 -53 -21 3 -11 1 -20 -5 -20 -5 0 -6 -4 -3 -10 3 -5 -1 -10 -9 -10 -11 0
-15 -7 -12 -22 3 -13 6 -124 7 -248 3 -188 4 -207 9 -115 3 61 7 101 8 90 2
-17 4 -18 12 -5 8 13 10 13 10 1 0 -11 4 -9 15 5 8 11 15 14 15 7 0 -7 10 -13
23 -13 20 -1 20 -2 5 -11 -27 -15 -22 -27 8 -21 18 3 30 0 36 -12 5 -9 20 -16
33 -16 13 0 26 -4 29 -9 3 -5 25 -8 48 -7 28 2 60 -5 90 -20 33 -16 48 -19 52
-11 3 8 11 4 22 -11 16 -22 52 -32 38 -11 -4 7 3 6 17 -2 13 -7 48 -12 79 -11
36 1 48 -1 36 -6 -18 -8 -18 -9 -2 -15 10 -4 25 -7 33 -7 13 0 13 3 3 15 -8 9
-9 15 -2 15 6 0 14 -5 18 -11 3 -6 17 -9 30 -6 13 2 21 1 19 -4 -3 -4 -1 -10
5 -14 5 -3 10 -2 10 4 0 6 15 2 33 -9 19 -11 50 -19 73 -19 63 1 98 -3 110
-12 6 -5 24 -10 40 -12 17 -2 34 -6 39 -8 6 -3 28 -7 49 -8 22 -1 43 -4 47 -6
4 -3 10 1 12 7 4 9 6 7 6 -3 1 -13 11 -16 46 -14 25 1 48 -2 51 -7 3 -5 10 -6
15 -2 22 13 59 11 59 -3 0 -10 6 -13 15 -9 9 3 18 -1 21 -9 4 -8 15 -15 26
-15 10 0 16 4 13 10 -3 6 -1 10 4 10 18 0 26 -5 23 -12 -1 -5 6 -8 15 -8 10 0
28 -3 40 -6 18 -5 21 -3 16 16 -4 16 -2 21 8 18 7 -2 16 -15 19 -29 5 -21 7
-22 13 -5 4 10 13 16 22 12 8 -3 19 3 24 12 8 14 11 14 11 2 0 -12 3 -11 11 3
10 17 13 17 34 3 27 -18 71 -8 81 18 3 8 17 12 34 11 21 -2 27 1 23 11 -3 9 2
14 12 14 9 0 15 5 13 12 -2 6 4 20 14 30 10 10 16 24 12 30 -4 7 -3 8 4 4 13
-8 -3 -42 -126 -271 -218 -407 -491 -796 -866 -1235 -280 -328 -667 -694
-1091 -1030 -198 -157 -270 -212 -305 -230 -21 -10 -23 -10 -12 1 14 15 16 33
3 25 -9 -6 -61 41 -61 55 0 5 -11 33 -25 63 -14 30 -25 61 -25 70 0 8 -5 16
-11 18 -11 4 -47 93 -56 140 -3 16 -9 28 -14 28 -5 0 -9 5 -9 12 0 17 -33 88
-41 88 -4 0 -13 17 -19 38 -7 20 -20 56 -31 79 -10 24 -19 48 -19 53 0 6 -8
25 -17 43 -9 18 -17 35 -18 39 0 4 -5 12 -12 19 -6 6 -9 18 -6 25 3 8 1 14 -5
14 -8 0 -15 13 -20 43 -4 20 -65 127 -73 127 -5 0 -8 3 -7 8 1 4 -8 27 -19 52
-12 25 -33 77 -47 115 -15 39 -31 79 -36 90 -5 11 -21 51 -35 89 -26 70 -196
414 -271 546 -7 14 -14 38 -14 54 0 28 -1 29 -15 10 -14 -19 -14 -19 -15 2 0
36 -13 35 -32 -3 -11 -23 -15 -28 -12 -13 11 44 111 242 168 332 68 109 196
275 270 350 109 111 196 153 316 153 94 -1 135 -21 213 -105 65 -70 127 -188
154 -295 16 -61 18 -109 16 -358 -2 -185 1 -287 7 -287 26 0 226 377 217 407
-3 10 -12 36 -20 58 -8 22 -32 135 -52 250 -54 308 -68 359 -152 530 -45 92
-94 150 -178 210 -92 66 -160 88 -276 89 -91 1 -99 -1 -171 -37 -103 -50 -137
-92 -231 -283 -43 -87 -129 -244 -190 -349 -137 -235 -210 -370 -246 -455 -15
-36 -52 -168 -81 -294 -43 -187 -50 -230 -39 -237 8 -5 52 -8 99 -7 98 3 143
-12 70 -24 -70 -10 -720 -9 -720 1 0 6 12 9 28 8 17 -1 26 3 24 11 -1 6 3 12
9 12 8 0 8 4 -1 15 -6 8 -10 22 -7 32 4 14 5 13 6 -5 0 -13 5 -21 10 -17 5 3
8 15 6 28 -2 12 -6 51 -10 87 -9 90 -99 429 -111 418 -2 -3 7 -42 21 -88 14
-46 25 -93 25 -104 0 -12 7 -41 16 -66 16 -45 48 -220 41 -226 -2 -2 -14 40
-26 94 -26 107 -156 511 -233 722 -66 182 -141 335 -222 453 -37 53 -63 97
-59 97 4 0 -3 6 -17 13 -14 8 -24 19 -22 26 1 7 -8 21 -20 31 -13 11 -21 20
-18 20 31 7 40 7 40 -3 0 -5 3 -7 6 -4 4 3 16 1 28 -5 15 -7 11 1 -14 29 -19
21 -9 13 22 -19 141 -143 231 -317 367 -710 65 -190 135 -420 160 -528 15 -68
51 -281 51 -306 0 -6 165 -3 193 4 16 4 17 38 17 541 0 500 -4 762 -30 2096
-5 281 -12 1016 -15 1635 -3 619 -8 1158 -11 1198 -10 127 -13 119 -145 -308
-331 -1077 -475 -2148 -394 -2924 18 -172 59 -418 81 -491 9 -27 20 -63 25
-79 13 -45 -5 -18 -30 44 -96 234 -240 402 -424 494 -125 63 -197 80 -332 79
-90 0 -124 -5 -191 -27 -174 -56 -321 -189 -400 -360 -14 -31 -30 -54 -35 -50
-6 3 -6 10 -1 17 10 13 12 47 3 44 -8 -2 -82 23 -106 37 -11 6 -31 11 -44 13
-13 1 -31 8 -40 16 -9 8 -29 14 -46 13 -16 -1 -35 2 -40 6 -8 5 -127 15 -218
18 -11 0 -15 5 -11 11 4 8 -7 10 -39 8 -25 -2 -43 -1 -41 2 7 12 -61 17 -75 5
-11 -9 -13 -7 -7 12 7 21 5 22 -53 22 -34 0 -61 4 -61 10 0 6 -10 5 -25 -2
-19 -9 -29 -7 -50 6 -15 10 -33 15 -41 12 -8 -3 -14 -1 -14 4 0 5 -16 8 -35 7
-19 -1 -35 -6 -35 -11 0 -5 -6 -4 -13 2 -7 6 -23 9 -35 5 -13 -3 -22 -1 -22 6
0 6 -5 11 -11 11 -5 0 -7 -5 -3 -12 4 -7 3 -8 -4 -4 -6 4 -45 8 -87 9 -55 1
-74 5 -70 15 2 6 -3 12 -11 12 -8 0 -12 -4 -9 -10 10 -17 -52 -11 -70 6 -10
10 -27 15 -45 12 -21 -3 -30 0 -30 9 0 16 -16 17 -26 2 -4 -8 -9 -7 -15 2 -7
11 -12 12 -27 2 -15 -9 -24 -9 -40 3 -11 7 -31 14 -44 14 -12 0 -48 4 -78 9
-30 6 -84 15 -120 20 -36 5 -77 14 -92 20 -14 5 -28 7 -31 5 -3 -3 -14 -1 -26
5 -13 7 -22 8 -26 1 -10 -16 -102 -12 -119 5 -11 11 -27 14 -59 10 -25 -3 -56
-1 -71 5 -21 8 -26 7 -26 -6 0 -11 -6 -13 -20 -9 -12 4 -28 1 -37 -7 -15 -11
-16 -10 -11 10 4 12 2 22 -3 22 -5 0 -9 -7 -9 -15 0 -8 -4 -15 -10 -15 -5 0
-10 4 -10 8 0 5 -14 9 -30 10 -17 0 -28 -3 -25 -9 4 -5 1 -17 -4 -26 -8 -15
-10 -10 -11 22 0 27 -3 35 -9 26 -6 -10 -14 4 -26 45 -51 176 -120 478 -166
724 -83 445 -114 907 -98 1431 8 271 27 435 74 641 32 147 152 530 169 543 15
11 2933 10 4306 -2z m607 -109 c-3 -3 -12 -4 -19 -1 -8 3 -5 6 6 6 11 1 17 -2
13 -5z m-363 -434 c5 -17 4 -20 -2 -10 -5 8 -13 26 -16 40 -5 17 -4 20 2 10 5
-8 13 -26 16 -40z m331 31 c3 -5 1 -12 -5 -16 -5 -3 -10 1 -10 9 0 18 6 21 15
7z m5 -106 c0 -8 -4 -15 -10 -15 -5 0 -7 7 -4 15 4 8 8 15 10 15 2 0 4 -7 4
-15z m0 -105 c0 -5 -2 -10 -4 -10 -3 0 -8 5 -11 10 -3 6 -1 10 4 10 6 0 11 -4
11 -10z m-54 -348 c-18 -16 -18 -16 -6 6 6 13 14 21 18 18 3 -4 -2 -14 -12
-24z m-4742 -2379 c-3 -51 -4 -54 -14 -48 -10 6 -7 45 5 65 9 15 11 12 9 -17z
m8507 -54 c-9 -23 -10 -22 -10 11 -1 23 2 31 9 24 7 -7 7 -19 1 -35z m-19 -61
c-8 -8 -9 -4 -5 13 4 13 8 18 11 10 2 -7 -1 -18 -6 -23z m-132 -410 c-40 -103
-33 -98 -118 -92 -84 6 -192 10 -364 12 -104 2 -118 4 -118 19 0 15 -2 14 -15
-3 -8 -10 -15 -14 -15 -8 0 6 -23 12 -52 13 -29 1 -60 4 -70 7 -9 2 -19 1 -22
-5 -8 -13 -48 -2 -65 18 -12 15 -13 14 -8 -1 5 -15 0 -18 -34 -18 -29 0 -38 3
-33 13 6 9 5 9 -7 1 -8 -7 -37 -12 -66 -12 -43 0 -51 3 -46 17 5 13 2 12 -17
-4 -13 -11 -20 -14 -15 -6 6 10 4 13 -6 9 -38 -16 -54 -20 -40 -10 10 7 10 11
1 17 -8 5 -16 1 -22 -9 -13 -22 -28 -20 -28 5 0 11 -4 18 -9 15 -5 -3 -8 4 -8
17 0 21 4 22 66 21 36 0 72 4 79 9 7 6 12 6 12 0 0 -16 672 -4 940 17 52 4 96
8 97 8 2 1 -6 -22 -17 -50z m-1322 -7 c-1 -22 -6 -26 -29 -26 -16 0 -29 3 -29
8 0 4 7 7 15 7 8 0 15 8 15 18 0 10 6 19 14 19 9 0 14 -10 14 -26z m124 3 c-3
-19 -7 -22 -13 -12 -8 12 -13 4 -10 -14 0 -5 -3 -8 -9 -8 -5 0 -10 5 -10 11 0
7 -8 18 -17 25 -16 12 -14 13 15 10 17 -2 32 1 32 5 0 5 4 9 9 9 4 0 6 -12 3
-26z m-226 5 c5 -8 9 -8 14 1 4 6 7 -2 8 -18 l1 -30 -25 23 c-13 12 -24 25
-24 29 0 10 18 7 26 -5z m211 -55 c-3 -3 -12 -4 -19 -1 -8 3 -5 6 6 6 11 1 17
-2 13 -5z m-4972 -280 c17 -13 20 -13 25 0 3 8 5 -56 6 -142 1 -173 20 -309
60 -430 31 -93 316 -663 329 -659 19 7 21 74 8 213 -16 158 -11 311 12 399 23
87 116 270 172 339 31 39 67 70 103 89 48 25 62 28 115 24 73 -7 134 -33 211
-90 90 -67 246 -234 311 -334 112 -169 337 -640 349 -727 5 -37 3 -44 -25 -69
-18 -15 -37 -40 -42 -55 -17 -41 -14 -171 3 -213 20 -46 35 -49 283 -49 105 0
288 -3 408 -7 191 -5 217 -8 215 -22 -2 -9 -10 -17 -18 -18 -109 -14 -115 -16
-95 -24 15 -6 9 -8 -23 -8 -40 -1 -43 -3 -37 -23 4 -13 9 -32 11 -43 5 -20 5
-20 -10 -1 -9 11 -16 28 -16 38 0 10 0 21 -1 26 0 4 10 10 23 14 13 3 -11 6
-53 7 -42 1 -78 -1 -81 -4 -3 -3 10 -65 29 -138 82 -320 130 -434 219 -524 41
-42 60 -53 96 -58 49 -7 107 11 144 46 38 35 75 137 105 283 40 197 49 227 67
224 23 -5 71 -108 88 -190 19 -85 14 -251 -10 -335 -46 -170 -159 -262 -324
-264 -55 -1 -62 -2 -37 -10 16 -4 41 -6 55 -3 17 4 21 3 12 -4 -8 -5 -13 -12
-13 -16 1 -3 -5 -19 -13 -35 -9 -16 -12 -32 -8 -36 4 -3 2 -5 -3 -3 -24 7 -55
-30 -67 -83 l-13 -54 -5 50 c-5 49 -6 49 -14 18 -4 -18 -5 -47 -1 -63 4 -17 2
-36 -3 -43 -14 -18 -24 -67 -13 -67 15 0 19 -39 5 -51 -22 -18 -17 -27 14 -22
26 4 26 4 8 -11 -16 -13 -18 -18 -7 -29 11 -9 14 -9 18 1 3 6 9 12 15 12 6 0
3 -9 -6 -19 -15 -16 -15 -20 -3 -28 18 -10 31 -49 18 -57 -10 -7 -3 -46 9 -46
10 0 7 -51 -4 -69 -7 -10 -5 -13 5 -9 8 3 22 9 32 13 9 4 17 3 17 -3 0 -6 -8
-13 -17 -16 -10 -3 -5 -4 12 -2 28 4 29 3 10 -11 -19 -15 -19 -15 7 -9 14 3
34 8 45 11 10 3 2 -2 -17 -11 -65 -30 -85 -43 -83 -53 2 -9 -128 -70 -251
-115 -80 -31 -96 -32 -68 -8 31 26 37 58 12 65 -14 4 -18 10 -13 24 3 10 3 15
-1 11 -4 -3 -9 -14 -10 -25 -3 -17 -27 -27 -26 -11 2 19 31 78 38 74 4 -2 8 6
8 17 1 12 13 56 27 97 15 41 31 94 37 117 8 31 15 41 25 37 18 -7 20 18 3 49
-6 12 -11 38 -10 57 4 66 -15 8 -22 -66 -12 -144 -85 -336 -156 -411 -43 -45
-88 -77 -137 -96 -42 -16 -44 -16 -128 14 -158 57 -693 338 -953 501 -908 567
-1525 1106 -2077 1818 -109 141 -302 427 -418 622 -112 188 -270 495 -261 509
4 8 9 7 15 -2 5 -8 9 -10 9 -5 0 5 9 1 21 -10 20 -18 21 -18 35 1 13 17 14 18
14 1 0 -12 5 -16 15 -12 10 3 18 -1 22 -11 6 -15 7 -15 13 1 5 16 8 17 21 4 8
-8 20 -13 27 -10 6 2 12 -1 12 -7 0 -14 53 -12 142 6 36 7 74 10 82 7 9 -3 16
-1 16 5 0 7 14 9 35 6 25 -3 38 0 41 10 4 10 22 13 63 12 36 -1 70 5 93 16 41
19 144 41 157 33 4 -3 16 1 27 8 16 12 20 12 31 -3 8 -10 15 -12 20 -6 5 6 15
10 23 11 36 1 100 17 100 25 0 5 7 9 16 9 8 0 12 -4 9 -10 -8 -13 14 -13 54 1
23 8 29 14 20 20 -12 7 25 11 100 9 14 0 27 4 30 9 8 11 85 25 77 13 -3 -5 6
-7 19 -4 14 2 25 9 25 14 0 5 9 6 20 3 11 -3 20 -2 20 2 0 5 12 9 28 9 34 1
83 14 99 26 7 5 17 7 23 3 5 -3 10 0 10 7 0 10 2 10 9 -1 5 -8 11 -9 15 -3 3
5 17 8 31 7 14 -2 25 1 25 6 0 6 4 8 8 5 5 -3 22 -1 38 4 39 11 36 11 59 -6z
m-278 -30 c-3 -3 -12 -4 -19 -1 -8 3 -5 6 6 6 11 1 17 -2 13 -5z m-384 -71
c-7 -2 -19 -2 -25 0 -7 3 -2 5 12 5 14 0 19 -2 13 -5z m6628 -46 c-10 -9 -11
-8 -5 6 3 10 9 15 12 12 3 -3 0 -11 -7 -18z m-7746 -18 c10 -30 0 -33 -13 -4
-6 14 -7 25 -2 25 5 0 12 -9 15 -21z m655 -13 c0 -3 -4 -8 -10 -11 -5 -3 -10
-1 -10 4 0 6 5 11 10 11 6 0 10 -2 10 -4z m3505 -853 c-18 -69 -40 -114 -25
-52 21 90 33 129 38 125 3 -3 -3 -36 -13 -73z m150 -528 c2 -21 2 -35 -2 -32
-3 4 -8 23 -10 44 -5 49 5 38 12 -12z m-25 -596 c0 -10 5 -19 10 -19 6 0 10
-6 10 -13 0 -6 16 -27 35 -45 21 -18 30 -32 21 -32 -18 0 -60 50 -87 101 -15
31 -16 37 -4 33 8 -4 15 -15 15 -25z m90 -833 c0 -2 -7 -7 -16 -10 -8 -3 -12
-2 -9 4 6 10 25 14 25 6z m-353 -578 c-3 -8 -6 -5 -6 6 -1 11 2 17 5 13 3 -3
4 -12 1 -19z"/>
<path d="M2759 8568 c-1 -7 -1 -24 -1 -38 1 -16 -1 -19 -4 -7 -3 9 -10 17 -16
17 -6 0 -9 -3 -5 -6 3 -4 -1 -14 -10 -22 -15 -15 -14 -17 8 -23 13 -4 20 -7
16 -8 -4 -1 0 -10 10 -21 30 -31 224 -370 218 -379 -2 -5 2 -11 10 -15 8 -3
15 -12 15 -20 0 -8 6 -19 14 -23 7 -4 30 -39 50 -77 38 -73 113 -176 127 -176
19 0 17 20 -4 47 -30 36 -64 92 -46 76 7 -7 17 -13 22 -13 4 0 5 6 2 13 -6 11
5 -1 77 -80 20 -23 38 -30 38 -15 0 4 -28 41 -61 82 -71 89 -142 194 -231 345
-184 313 -210 355 -218 355 -6 0 -10 -6 -11 -12z"/>
<path d="M3818 8553 c6 -2 18 -2 25 0 6 3 1 5 -13 5 -14 0 -19 -2 -12 -5z"/>
<path d="M3873 8546 c1 -4 46 -9 100 -10 l97 -1 4 -365 c3 -201 6 -371 7 -377
3 -15 35 -17 44 -3 4 6 6 172 5 369 0 312 1 361 15 374 14 14 1 16 -130 19
-80 2 -144 -1 -142 -6z"/>
<path d="M8845 8541 c-107 -27 -195 -123 -195 -215 0 -29 15 -17 17 14 3 41
67 140 81 125 2 -2 1 -9 -4 -16 -10 -17 -12 -81 -2 -101 4 -9 30 -29 58 -45
32 -18 45 -30 37 -35 -7 -4 3 -8 23 -9 31 -1 32 -2 10 -8 -20 -6 -15 -9 30
-14 30 -4 80 -16 110 -27 36 -13 44 -19 23 -15 -18 3 -48 7 -65 10 -51 8 -9
-9 99 -41 59 -17 105 -38 129 -57 35 -29 36 -33 32 -82 -4 -50 -17 -74 -90
-169 -19 -26 -20 -28 -2 -18 22 12 55 47 73 77 11 19 12 18 5 -4 -4 -16 -3
-21 5 -17 18 11 13 1 -14 -28 -14 -15 -53 -40 -87 -57 -48 -24 -55 -30 -30
-25 42 7 129 63 169 109 32 36 53 90 53 135 0 44 -22 110 -43 130 -25 23 -121
62 -287 117 -128 42 -196 77 -205 105 -3 11 -3 34 0 52 4 18 6 37 5 42 -1 5
22 21 52 35 44 22 70 27 155 29 56 2 109 -1 120 -6 11 -6 33 -48 52 -97 19
-48 40 -89 48 -92 45 -17 62 100 21 152 -36 46 -73 55 -220 54 -73 -1 -146 -4
-163 -8z"/>
<path d="M7285 8525 c17 -7 32 -9 33 -4 2 5 8 9 13 9 5 0 9 -26 9 -59 0 -86
12 -181 21 -175 5 3 9 59 9 125 l0 119 -57 -1 c-57 -1 -57 -1 -28 -14z"/>
<path d="M7823 8533 c9 -2 25 -2 35 0 9 3 1 5 -18 5 -19 0 -27 -2 -17 -5z"/>
<path d="M7900 8523 c56 -18 119 -46 118 -52 -1 -3 17 -25 41 -48 23 -23 40
-47 36 -53 -3 -5 -2 -10 3 -10 5 0 7 -12 4 -26 l-5 -27 -11 28 c-11 26 -12 25
-11 -21 0 -27 3 -51 7 -54 14 -11 -6 -63 -36 -92 -19 -20 -23 -27 -11 -20 65
34 114 136 100 205 -16 76 -76 136 -161 162 -44 13 -112 21 -74 8z m160 -78
c13 -14 21 -25 18 -25 -2 0 -15 11 -28 25 -13 14 -21 25 -18 25 2 0 15 -11 28
-25z"/>
<path d="M7455 8488 c-8 -36 9 -685 18 -694 4 -5 12 -2 17 6 10 16 13 8 10
-27 -1 -13 3 -23 8 -23 17 0 22 91 22 426 l0 334 -35 0 c-28 0 -36 -4 -40 -22z
m55 -658 c0 -5 -4 -10 -10 -10 -5 0 -10 5 -10 10 0 6 5 10 10 10 6 0 10 -4 10
-10z"/>
<path d="M2724 8452 c4 -7 1 -24 -8 -37 -13 -19 -13 -23 -2 -19 19 7 28 46 14
59 -8 7 -9 6 -4 -3z"/>
<path d="M6073 8398 c-1 -27 1 -29 7 -13 11 27 12 45 2 45 -5 0 -9 -15 -9 -32z"/>
<path d="M8716 8413 c-6 -14 -5 -15 5 -6 7 7 10 15 7 18 -3 3 -9 -2 -12 -12z"/>
<path d="M6041 8374 c0 -11 3 -14 6 -6 3 7 2 16 -1 19 -3 4 -6 -2 -5 -13z"/>
<path d="M8715 8325 c28 -23 96 -57 102 -51 3 2 -19 17 -49 33 -66 35 -79 39
-53 18z"/>
<path d="M8054 8234 c-4 -10 -14 -27 -22 -37 -14 -16 -14 -17 0 -12 18 7 44
52 35 61 -4 4 -10 -2 -13 -12z"/>
<path d="M8898 8213 c6 -2 18 -2 25 0 6 3 1 5 -13 5 -14 0 -19 -2 -12 -5z"/>
<path d="M8606 8033 c-12 -13 -5 -115 10 -145 13 -25 18 -28 26 -17 8 11 8 10
4 -5 -9 -27 3 -57 22 -55 9 2 32 -7 51 -18 47 -30 101 -37 142 -20 l34 14 -40
20 c-63 33 -143 101 -177 152 -37 55 -64 82 -72 74z m49 -93 c3 -5 1 -10 -4
-10 -6 0 -11 5 -11 10 0 6 2 10 4 10 3 0 8 -4 11 -10z m90 -81 c11 -10 31 -26
45 -37 32 -26 22 -36 -27 -27 -63 10 -96 50 -71 82 11 13 19 10 53 -18z"/>
<path d="M2971 7988 c-39 -127 -62 -210 -59 -219 2 -6 14 22 26 62 12 41 31
100 42 132 10 31 15 57 10 57 -5 0 -13 -15 -19 -32z"/>
<path d="M2422 7985 c0 -16 2 -22 5 -12 2 9 2 23 0 30 -3 6 -5 -1 -5 -18z"/>
<path d="M2368 7918 c17 -17 15 -31 -3 -24 -8 3 -15 1 -15 -4 0 -5 -19 -18
-42 -28 -46 -20 -64 -37 -70 -64 -5 -25 15 -24 28 1 13 26 72 67 94 66 12 0
14 -11 12 -49 -3 -34 0 -46 7 -41 6 3 9 10 6 15 -9 15 20 17 31 2 9 -12 11 -2
12 44 0 45 -4 63 -18 77 -22 20 -62 25 -42 5z"/>
<path d="M7343 7820 c0 -36 2 -50 4 -32 2 17 2 47 0 65 -2 17 -4 3 -4 -33z"/>
<path d="M3176 7855 c4 -8 11 -15 16 -15 6 0 5 6 -2 15 -7 8 -14 15 -16 15 -2
0 -1 -7 2 -15z"/>
<path d="M4203 7833 c9 -2 15 -9 12 -14 -4 -5 -1 -9 4 -9 6 0 11 7 11 15 0 9
-9 15 -22 14 -18 -1 -19 -2 -5 -6z"/>
<path d="M8956 6031 c-4 -5 3 -7 14 -4 23 6 26 13 6 13 -8 0 -17 -4 -20 -9z"/>
<path d="M7683 5425 c0 -8 4 -12 9 -9 5 3 6 10 3 15 -9 13 -12 11 -12 -6z"/>
<path d="M7655 5420 c3 -5 8 -10 11 -10 2 0 4 5 4 10 0 6 -5 10 -11 10 -5 0
-7 -4 -4 -10z"/>
<path d="M7711 5044 c0 -11 3 -14 6 -6 3 7 2 16 -1 19 -3 4 -6 -2 -5 -13z"/>
<path d="M5801 4474 c0 -11 3 -14 6 -6 3 7 2 16 -1 19 -3 4 -6 -2 -5 -13z"/>
<path d="M5791 4434 c0 -11 3 -14 6 -6 3 7 2 16 -1 19 -3 4 -6 -2 -5 -13z"/>
<path d="M5211 4430 c0 -8 6 -28 14 -45 17 -39 18 -21 0 25 -7 19 -14 28 -14
20z"/>
<path d="M5781 4394 c0 -11 3 -14 6 -6 3 7 2 16 -1 19 -3 4 -6 -2 -5 -13z"/>
<path d="M5761 4324 c0 -11 3 -14 6 -6 3 7 2 16 -1 19 -3 4 -6 -2 -5 -13z"/>
<path d="M5752 4280 c0 -14 2 -19 5 -12 2 6 2 18 0 25 -3 6 -5 1 -5 -13z"/>
<path d="M5742 4230 c0 -14 2 -19 5 -12 2 6 2 18 0 25 -3 6 -5 1 -5 -13z"/>
<path d="M5721 4144 c0 -11 3 -14 6 -6 3 7 2 16 -1 19 -3 4 -6 -2 -5 -13z"/>
<path d="M8755 5410 c3 -5 10 -10 16 -10 5 0 9 5 9 10 0 6 -7 10 -16 10 -8 0
-12 -4 -9 -10z"/>
<path d="M8850 5410 c0 -5 5 -10 10 -10 6 0 10 5 10 10 0 6 -4 10 -10 10 -5 0
-10 -4 -10 -10z"/>
<path d="M8920 5409 c0 -5 5 -7 10 -4 6 3 10 8 10 11 0 2 -4 4 -10 4 -5 0 -10
-5 -10 -11z"/>
<path d="M9178 5413 c7 -3 16 -2 19 1 4 3 -2 6 -13 5 -11 0 -14 -3 -6 -6z"/>
<path d="M5317 3291 c-19 -176 -99 -356 -188 -421 -112 -81 -184 -28 -250 186
-35 112 -48 126 -84 90 -58 -58 -95 -182 -95 -321 0 -114 17 -192 60 -280 42
-85 82 -130 148 -162 48 -24 70 -28 137 -28 69 0 86 4 126 27 64 37 128 112
178 205 l41 78 -5 -48 c-3 -26 -14 -80 -25 -120 -38 -139 -50 -244 -50 -421 1
-254 25 -390 86 -488 23 -35 122 -118 143 -118 5 0 12 -6 15 -12 3 -7 4 257 1
587 -3 330 -5 759 -5 953 l0 352 -114 0 -113 0 -6 -59z"/>
<path d="M5860 2554 c0 -26 27 -64 46 -64 8 0 14 -4 14 -8 0 -5 12 -14 27 -21
23 -10 19 -4 -22 41 -26 29 -52 57 -57 63 -5 5 -8 1 -8 -11z"/>
<path d="M5952 2075 c0 -16 2 -22 5 -12 2 9 2 23 0 30 -3 6 -5 -1 -5 -18z"/>
<path d="M5950 1819 c0 -5 5 -7 10 -4 6 3 10 8 10 11 0 2 -4 4 -10 4 -5 0 -10
-5 -10 -11z"/>
<path d="M6095 1610 c-3 -6 1 -7 9 -4 18 7 21 14 7 14 -6 0 -13 -4 -16 -10z"/>
</g>
</svg>
